Coordinates
version=1
nRows=27
nColumns=12
inDegrees=yes

Units are S.I. units (second, meters, Newtons, ...)
Angles are in degrees

endheader
time	SC_y	SC_z	SC_x	AC_y	AC_z	AC_x	GH_y	GH_z	GH_yy	EL_x	PS_y
       0.0              -27.31         -4.214           56.8          52.39         -5.395          6.527         -136.8          81.83          149.3          130.6          40.62
   0.02148              -27.31         -4.214          56.79          52.39         -5.395          6.527         -136.8          81.83          149.3          130.6          40.62
   0.04295              -27.31         -4.213          56.79          52.39         -5.396          6.526         -136.8          81.83          149.3          130.6          40.62
   0.06443              -27.31         -4.213          56.78           52.4         -5.397          6.526         -136.8          81.82          149.2          130.6          40.62
   0.08591              -27.31         -4.212          56.77           52.4         -5.398          6.525         -136.7          81.82          149.2          130.6          40.62
    0.1074              -27.31         -4.212          56.76           52.4         -5.399          6.524         -136.7          81.82          149.2          130.5          40.62
    0.1289              -27.31         -4.211          56.75           52.4         -5.401          6.524         -136.7          81.81          149.2          130.5          40.63
    0.1503               -27.3         -4.211          56.74           52.4         -5.402          6.523         -136.7          81.81          149.2          130.5          40.63
    0.1718               -27.3          -4.21          56.73          52.41         -5.403          6.522         -136.7          81.81          149.1          130.5          40.63
    0.1933               -27.3          -4.21          56.71          52.41         -5.405          6.521         -136.7           81.8          149.1          130.4          40.63
    0.2148               -27.3         -4.209           56.7          52.41         -5.406           6.52         -136.6           81.8          149.1          130.4          40.64
    0.2362               -27.3         -4.208          56.69          52.42         -5.408          6.519         -136.6          81.79          149.0          130.4          40.64
    0.2577               -27.3         -4.207          56.67          52.42          -5.41          6.518         -136.6          81.79          149.0          130.4          40.64
    0.2792               -27.3         -4.207          56.66          52.42         -5.412          6.516         -136.6          81.78          149.0          130.3          40.65
    0.3007              -27.29         -4.206          56.64          52.43         -5.414          6.515         -136.5          81.78          148.9          130.3          40.65
    0.3222              -27.29         -4.205          56.62          52.43         -5.416          6.513         -136.5          81.77          148.9          130.3          40.66
    0.3436              -27.29         -4.204           56.6          52.43         -5.419          6.512         -136.5          81.77          148.9          130.2          40.66
    0.3651              -27.29         -4.202          56.57          52.44         -5.422           6.51         -136.4          81.76          148.8          130.2          40.66
    0.3866              -27.29         -4.201          56.55          52.44         -5.425          6.508         -136.4          81.75          148.7          130.1          40.67
    0.4081              -27.28           -4.2          56.52          52.45         -5.428          6.506         -136.4          81.74          148.7          130.1          40.68
    0.4295              -27.28         -4.198          56.49          52.46         -5.431          6.504         -136.3          81.73          148.6          130.0          40.68
     0.451              -27.28         -4.196          56.46          52.46         -5.435          6.501         -136.3          81.72          148.5          129.9          40.69
    0.4725              -27.27         -4.194          56.42          52.47          -5.44          6.498         -136.2          81.71          148.5          129.9           40.7
     0.494              -27.27         -4.192          56.38          52.48         -5.445          6.495         -136.1           81.7          148.4          129.8          40.71
    0.5154              -27.26          -4.19          56.34          52.49          -5.45          6.492         -136.1          81.68          148.3          129.7          40.72
    0.5369              -27.26         -4.187          56.29           52.5         -5.456          6.488         -136.0          81.67          148.2          129.6          40.73
    0.5584              -27.25         -4.184          56.23          52.51         -5.463          6.483         -135.9          81.65          148.1          129.5          40.74
